<svg width="80" height="50" viewBox="0 0 100 59" fill="none" xmlns="http://www.w3.org/2000/svg">
<path d="M99.8653 36.8937C100.198 30.5653 95.5092 23.1004 81.3439 21.1038C76.761 20.4575 72.3092 18.8967 68.2963 17.0058C63.753 21.6507 65.2631 26.2972 65.3314 26.4978C65.7541 27.653 65.2682 28.9664 64.2512 29.4466C64.0035 29.5635 63.7466 29.6188 63.4935 29.6188C62.7079 29.6188 61.9598 29.0857 61.64 28.212C61.531 27.9136 59.256 21.4333 64.4086 15.0092C62.2217 13.7936 60.2261 12.5305 58.4871 11.3424C52.3848 16.431 54.269 21.87 54.29 21.928C54.713 23.0832 54.231 24.4087 53.2143 24.8889C52.9641 25.0073 52.7047 25.0632 52.4497 25.0632C51.6683 25.0632 50.9263 24.538 50.6076 23.667C49.526 20.7112 49.3224 14.2744 54.9355 8.77198C52.6464 7.01789 51.3012 5.78628 51.2539 5.74279C46.478 1.3953 44.3303 0 42.4159 0C40.0848 0 38.9828 2.05732 37.9167 4.04698C36.8182 6.09735 35.314 8.90517 31.8676 11.6272C29.3425 13.6211 26.7118 14.6326 24.0484 14.6329C24.0476 14.6329 24.0479 14.6329 24.0471 14.6329C17.3298 14.6329 11.7037 8.3854 8.94834 4.66158C8.55699 4.13275 7.97582 3.83164 7.36673 3.8549C6.75898 3.87393 6.1919 4.20705 5.82687 4.75973C1.07329 11.9591 -0.827873 21.5758 0.330213 32.5706C1.05442 39.449 2.7405 44.8097 3.3137 46.4889L2.78357 55.672C2.73386 56.305 2.92102 56.9329 3.29828 57.4019C3.67606 57.8709 4.20991 58.1382 4.76955 58.1382H83.9693C89.7026 58.1382 94.0148 54.4458 96.7869 50.738C100.763 45.4174 99.973 37.7151 99.8653 36.8937ZM93.7471 47.2011C91.768 49.8488 88.4783 53.6074 83.9696 53.6074H6.9488L7.16628 48.4143L87.4786 48.3569C89.9942 48.3569 92.3402 47.6242 94.3011 46.3642C94.1326 46.6502 93.9494 46.9302 93.7471 47.2011Z" fill="#EAE6E6"/>
</svg>
